<?xml version="1.0" encoding="UTF-8"?>
<!DOCTYPE svg PUBLIC "-//W3C//DTD SVG 1.1//EN" "http://www.w3.org/Graphics/SVG/1.1/DTD/svg11.dtd">
<svg xmlns="http://www.w3.org/2000/svg" version="1.1" width="50px" height="50px" style="shape-rendering:geometricPrecision; text-rendering:geometricPrecision; image-rendering:optimizeQuality; fill-rule:evenodd; clip-rule:evenodd" xmlns:xlink="http://www.w3.org/1999/xlink">
<g><path style="opacity:0.892" fill="#c6b0e5" d="M 34.5,5.5 C 28.4018,6.11665 22.7351,5.44998 17.5,3.5C 23.5132,2.11045 29.1799,2.77712 34.5,5.5 Z"/></g>
<g><path style="opacity:0.978" fill="#c1b1e1" d="M 17.5,3.5 C 22.7351,5.44998 28.4018,6.11665 34.5,5.5C 35.609,5.55688 36.609,5.89022 37.5,6.5C 29.2312,8.46978 20.5645,9.13644 11.5,8.5C 11.5,7.83333 11.5,7.16667 11.5,6.5C 13.5,5.5 15.5,4.5 17.5,3.5 Z"/></g>
<g><path style="opacity:1" fill="#beabdf" d="M 37.5,6.5 C 38.1667,6.5 38.5,6.83333 38.5,7.5C 38.4226,8.74975 37.756,9.58309 36.5,10C 28.8333,10.6667 21.1667,10.6667 13.5,10C 11.6573,9.8413 10.9907,9.3413 11.5,8.5C 20.5645,9.13644 29.2312,8.46978 37.5,6.5 Z"/></g>
<g><path style="opacity:1" fill="#baa5de" d="M 11.5,6.5 C 11.5,7.16667 11.5,7.83333 11.5,8.5C 10.9907,9.3413 11.6573,9.8413 13.5,10C 21.1667,10.6667 28.8333,10.6667 36.5,10C 37.756,9.58309 38.4226,8.74975 38.5,7.5C 39.1667,7.5 39.5,7.83333 39.5,8.5C 39.4226,9.74975 38.756,10.5831 37.5,11C 29.1733,11.4997 20.84,11.6664 12.5,11.5C 11.1667,11.5 9.83333,11.5 8.5,11.5C 8.5,10.8333 8.5,10.1667 8.5,9.5C 9.16667,8.16667 10.1667,7.16667 11.5,6.5 Z"/></g>
<g><path style="opacity:1" fill="#b7a0de" d="M 39.5,8.5 C 40.1667,8.5 40.5,8.83333 40.5,9.5C 40.7373,10.791 40.404,11.791 39.5,12.5C 38.8333,12.5 38.1667,12.5 37.5,12.5C 28.9832,12.8261 20.6499,12.4927 12.5,11.5C 20.84,11.6664 29.1733,11.4997 37.5,11C 38.756,10.5831 39.4226,9.74975 39.5,8.5 Z"/></g>
<g><path style="opacity:1" fill="#b29adc" d="M 8.5,11.5 C 9.83333,11.5 11.1667,11.5 12.5,11.5C 20.6499,12.4927 28.9832,12.8261 37.5,12.5C 28.6762,13.6573 19.6762,13.824 10.5,13C 9.5842,12.7216 8.91753,12.2216 8.5,11.5 Z"/></g>
<g><path style="opacity:1" fill="#ad90db" d="M 8.5,9.5 C 8.5,10.1667 8.5,10.8333 8.5,11.5C 8.91753,12.2216 9.5842,12.7216 10.5,13C 19.6762,13.824 28.6762,13.6573 37.5,12.5C 38.1667,12.5 38.8333,12.5 39.5,12.5C 39.3893,13.1174 39.056,13.6174 38.5,14C 30.1733,14.4997 21.84,14.6664 13.5,14.5C 11.8333,14.5 10.1667,14.5 8.5,14.5C 7.76589,13.2921 7.43255,11.9587 7.5,10.5C 7.5,9.83333 7.83333,9.5 8.5,9.5 Z"/></g>
<g><path style="opacity:1" fill="#a884db" d="M 40.5,9.5 C 41.9744,10.4363 42.9744,11.7697 43.5,13.5C 42.8333,13.5 42.5,13.8333 42.5,14.5C 41.1667,14.8333 39.8333,15.1667 38.5,15.5C 29.9832,15.8261 21.6499,15.4927 13.5,14.5C 21.84,14.6664 30.1733,14.4997 38.5,14C 39.056,13.6174 39.3893,13.1174 39.5,12.5C 40.404,11.791 40.7373,10.791 40.5,9.5 Z"/></g>
<g><path style="opacity:1" fill="#9261d1" d="M 7.5,10.5 C 7.43255,11.9587 7.76589,13.2921 8.5,14.5C 8.91753,15.2216 9.5842,15.7216 10.5,16C 20.0092,16.8243 29.3425,16.6576 38.5,15.5C 39.8333,15.1667 41.1667,14.8333 42.5,14.5C 41.8777,16.335 40.5444,17.5017 38.5,18C 36.1902,18.4966 33.8568,18.6633 31.5,18.5C 29.1944,18.0074 26.861,17.6741 24.5,17.5C 22.2646,17.2053 20.2646,17.5386 18.5,18.5C 16.5,18.5 14.5,18.5 12.5,18.5C 9.46687,18.8685 6.8002,18.2018 4.5,16.5C 5.13022,14.2504 6.13022,12.2504 7.5,10.5 Z"/></g>
<g><path style="opacity:1" fill="#a079d8" d="M 8.5,14.5 C 10.1667,14.5 11.8333,14.5 13.5,14.5C 21.6499,15.4927 29.9832,15.8261 38.5,15.5C 29.3425,16.6576 20.0092,16.8243 10.5,16C 9.5842,15.7216 8.91753,15.2216 8.5,14.5 Z"/></g>
<g><path style="opacity:1" fill="#9024df" d="M 12.5,18.5 C 14.5,18.5 16.5,18.5 18.5,18.5C 20.1992,18.3398 21.8659,18.5065 23.5,19C 19.4652,20.1739 15.4652,21.3406 11.5,22.5C 10.9094,21.8485 10.2427,21.1818 9.5,20.5C 10.6016,19.8243 11.6016,19.1577 12.5,18.5 Z"/></g>
<g><path style="opacity:1" fill="#8a1fd9" d="M 18.5,18.5 C 20.2646,17.5386 22.2646,17.2053 24.5,17.5C 24.6347,19.5542 23.968,21.2209 22.5,22.5C 18.7785,22.9111 15.1119,23.5778 11.5,24.5C 10.4937,23.6043 10.4937,22.9377 11.5,22.5C 15.4652,21.3406 19.4652,20.1739 23.5,19C 21.8659,18.5065 20.1992,18.3398 18.5,18.5 Z"/></g>
<g><path style="opacity:1" fill="#9049d9" d="M 43.5,13.5 C 43.5,14.1667 43.5,14.8333 43.5,15.5C 43.7135,17.1439 43.3802,18.6439 42.5,20C 40.1902,20.4966 37.8568,20.6633 35.5,20.5C 33.847,20.3404 32.5137,19.6737 31.5,18.5C 33.8568,18.6633 36.1902,18.4966 38.5,18C 40.5444,17.5017 41.8777,16.335 42.5,14.5C 42.5,13.8333 42.8333,13.5 43.5,13.5 Z"/></g>
<g><path style="opacity:1" fill="#831fd6" d="M 24.5,17.5 C 26.861,17.6741 29.1944,18.0074 31.5,18.5C 32.5137,19.6737 33.847,20.3404 35.5,20.5C 35.5,20.8333 35.5,21.1667 35.5,21.5C 33.0372,21.7811 30.8705,22.7811 29,24.5C 27.8873,23.695 26.7206,23.0283 25.5,22.5C 24.8333,22.5 24.1667,22.5 23.5,22.5C 23.1667,22.5 22.8333,22.5 22.5,22.5C 23.968,21.2209 24.6347,19.5542 24.5,17.5 Z"/></g>
<g><path style="opacity:1" fill="#8223d3" d="M 4.5,16.5 C 6.8002,18.2018 9.46687,18.8685 12.5,18.5C 11.6016,19.1577 10.6016,19.8243 9.5,20.5C 10.2427,21.1818 10.9094,21.8485 11.5,22.5C 10.4937,22.9377 10.4937,23.6043 11.5,24.5C 9.88277,25.038 8.2161,25.3713 6.5,25.5C 6.5,26.8333 6.5,28.1667 6.5,29.5C 5.55106,25.3435 4.88439,21.0102 4.5,16.5 Z"/></g>
<g><path style="opacity:1" fill="#6e17b2" d="M 35.5,21.5 C 35.5,21.8333 35.5,22.1667 35.5,22.5C 32.0528,24.7537 32.0528,26.4204 35.5,27.5C 32.4021,27.2444 29.4021,26.5778 26.5,25.5C 25.596,24.791 25.2627,23.791 25.5,22.5C 26.7206,23.0283 27.8873,23.695 29,24.5C 30.8705,22.7811 33.0372,21.7811 35.5,21.5 Z"/></g>
<g><path style="opacity:1" fill="#8220ce" d="M 43.5,15.5 C 43.9144,19.9688 43.9144,24.6355 43.5,29.5C 42.8333,29.8333 42.1667,30.1667 41.5,30.5C 39.5,29.5 37.5,28.5 35.5,27.5C 37.861,27.6741 40.1944,28.0074 42.5,28.5C 42.5,26.5 42.5,24.5 42.5,22.5C 40.0314,23.0671 37.698,23.0671 35.5,22.5C 35.5,22.1667 35.5,21.8333 35.5,21.5C 35.5,21.1667 35.5,20.8333 35.5,20.5C 37.8568,20.6633 40.1902,20.4966 42.5,20C 43.3802,18.6439 43.7135,17.1439 43.5,15.5 Z"/></g>
<g><path style="opacity:1" fill="#9321d9" d="M 35.5,22.5 C 37.698,23.0671 40.0314,23.0671 42.5,22.5C 42.5,24.5 42.5,26.5 42.5,28.5C 40.1944,28.0074 37.861,27.6741 35.5,27.5C 32.0528,26.4204 32.0528,24.7537 35.5,22.5 Z"/></g>
<g><path style="opacity:1" fill="#50456d" d="M 22.5,22.5 C 22.8333,22.5 23.1667,22.5 23.5,22.5C 23.4729,24.1993 22.8062,25.5326 21.5,26.5C 19.7354,27.4614 17.7354,27.7947 15.5,27.5C 13.4839,29.0133 11.1506,29.8466 8.5,30C 7.9152,31.3024 7.24853,32.469 6.5,33.5C 6.5,32.1667 6.5,30.8333 6.5,29.5C 6.5,28.1667 6.5,26.8333 6.5,25.5C 8.2161,25.3713 9.88277,25.038 11.5,24.5C 15.1119,23.5778 18.7785,22.9111 22.5,22.5 Z"/></g>
<g><path style="opacity:0.549" fill="#5d526d" d="M 23.5,22.5 C 24.1667,22.5 24.8333,22.5 25.5,22.5C 25.2627,23.791 25.596,24.791 26.5,25.5C 28.0277,28.7487 29.3611,32.082 30.5,35.5C 30.1583,36.3382 29.4916,36.6716 28.5,36.5C 28.1075,34.7162 27.4408,33.0495 26.5,31.5C 27.1667,27.5 25.5,25.8333 21.5,26.5C 22.8062,25.5326 23.4729,24.1993 23.5,22.5 Z"/></g>
<g><path style="opacity:1" fill="#c15638" d="M 26.5,25.5 C 29.4021,26.5778 32.4021,27.2444 35.5,27.5C 37.5,28.5 39.5,29.5 41.5,30.5C 41.1667,30.5 40.8333,30.5 40.5,30.5C 37.5683,30.5456 34.9016,30.0456 32.5,29C 31.5769,31.0408 31.2436,33.2075 31.5,35.5C 31.1667,35.5 30.8333,35.5 30.5,35.5C 29.3611,32.082 28.0277,28.7487 26.5,25.5 Z"/></g>
<g><path style="opacity:0.125" fill="#cdcbd3" d="M 21.5,26.5 C 25.5,25.8333 27.1667,27.5 26.5,31.5C 24.1667,31.5 21.8333,31.5 19.5,31.5C 18.4324,30.5655 17.099,30.2322 15.5,30.5C 15.5,29.5 15.5,28.5 15.5,27.5C 17.7354,27.7947 19.7354,27.4614 21.5,26.5 Z"/></g>
<g><path style="opacity:0.129" fill="#8370b1" d="M 19.5,31.5 C 21.8333,31.5 24.1667,31.5 26.5,31.5C 27.4408,33.0495 28.1075,34.7162 28.5,36.5C 23.9639,36.8498 19.6306,36.1831 15.5,34.5C 14.2438,34.5386 13.2438,34.0386 12.5,33C 14.6775,31.7978 17.0108,31.2978 19.5,31.5 Z"/></g>
<g><path style="opacity:1" fill="#de7927" d="M 43.5,29.5 C 44.8333,32.1667 44.8333,34.8333 43.5,37.5C 42.8423,36.6016 42.1757,35.6016 41.5,34.5C 39.3577,36.9045 36.691,38.2378 33.5,38.5C 33.7678,40.099 33.4345,41.4324 32.5,42.5C 32.5,40.1667 32.5,37.8333 32.5,35.5C 34.1559,33.8183 36.8226,33.1517 40.5,33.5C 40.5,32.5 40.5,31.5 40.5,30.5C 40.8333,30.5 41.1667,30.5 41.5,30.5C 42.1667,30.1667 42.8333,29.8333 43.5,29.5 Z"/></g>
<g><path style="opacity:0.973" fill="#afadb1" d="M 15.5,27.5 C 15.5,28.5 15.5,29.5 15.5,30.5C 17.099,30.2322 18.4324,30.5655 19.5,31.5C 17.0108,31.2978 14.6775,31.7978 12.5,33C 13.2438,34.0386 14.2438,34.5386 15.5,34.5C 15.4142,35.4959 15.7476,36.3292 16.5,37C 15.9056,37.4643 15.2389,37.631 14.5,37.5C 12.9482,36.3782 11.2816,35.8782 9.5,36C 11.7415,37.7703 13.4082,39.9369 14.5,42.5C 10.4351,40.7671 7.76842,37.7671 6.5,33.5C 7.24853,32.469 7.9152,31.3024 8.5,30C 11.1506,29.8466 13.4839,29.0133 15.5,27.5 Z"/></g>
<g><path style="opacity:1" fill="#d96f2d" d="M 40.5,30.5 C 40.5,31.5 40.5,32.5 40.5,33.5C 36.8226,33.1517 34.1559,33.8183 32.5,35.5C 32.5,37.8333 32.5,40.1667 32.5,42.5C 32.5,42.8333 32.5,43.1667 32.5,43.5C 32.1667,43.5 31.8333,43.5 31.5,43.5C 31.5,42.5 31.5,41.5 31.5,40.5C 31.5,38.8333 31.5,37.1667 31.5,35.5C 31.2436,33.2075 31.5769,31.0408 32.5,29C 34.9016,30.0456 37.5683,30.5456 40.5,30.5 Z"/></g>
<g><path style="opacity:1" fill="#7e727f" d="M 15.5,34.5 C 19.6306,36.1831 23.9639,36.8498 28.5,36.5C 29.4916,36.6716 30.1583,36.3382 30.5,35.5C 30.8333,35.5 31.1667,35.5 31.5,35.5C 31.5,37.1667 31.5,38.8333 31.5,40.5C 30.8485,39.9094 30.1818,39.2427 29.5,38.5C 28.2638,39.2458 26.9305,39.5792 25.5,39.5C 21.9472,37.5204 18.2805,36.8537 14.5,37.5C 15.2389,37.631 15.9056,37.4643 16.5,37C 15.7476,36.3292 15.4142,35.4959 15.5,34.5 Z"/></g>
<g><path style="opacity:1" fill="#67656f" d="M 14.5,37.5 C 18.2805,36.8537 21.9472,37.5204 25.5,39.5C 22.8127,39.3359 20.146,39.5026 17.5,40C 16.244,40.4169 15.5774,41.2502 15.5,42.5C 15.1667,42.5 14.8333,42.5 14.5,42.5C 13.4082,39.9369 11.7415,37.7703 9.5,36C 11.2816,35.8782 12.9482,36.3782 14.5,37.5 Z"/></g>
<g><path style="opacity:1" fill="#63538b" d="M 31.5,40.5 C 31.5,41.5 31.5,42.5 31.5,43.5C 31.1583,44.3382 30.4916,44.6716 29.5,44.5C 29.4274,41.0504 27.5941,39.717 24,40.5C 21.9579,40.6155 19.9579,40.9488 18,41.5C 16.9701,41.8361 16.4701,42.5028 16.5,43.5C 15.8333,43.5 15.5,43.1667 15.5,42.5C 15.5774,41.2502 16.244,40.4169 17.5,40C 20.146,39.5026 22.8127,39.3359 25.5,39.5C 26.9305,39.5792 28.2638,39.2458 29.5,38.5C 30.1818,39.2427 30.8485,39.9094 31.5,40.5 Z"/></g>
<g><path style="opacity:0.965" fill="#e5861a" d="M 43.5,37.5 C 40.862,41.9786 37.1953,43.9786 32.5,43.5C 32.5,43.1667 32.5,42.8333 32.5,42.5C 33.4345,41.4324 33.7678,40.099 33.5,38.5C 36.691,38.2378 39.3577,36.9045 41.5,34.5C 42.1757,35.6016 42.8423,36.6016 43.5,37.5 Z"/></g>
<g><path style="opacity:1" fill="#6d4dae" d="M 29.5,44.5 C 25.1018,44.7059 20.7685,44.3726 16.5,43.5C 16.4701,42.5028 16.9701,41.8361 18,41.5C 19.9579,40.9488 21.9579,40.6155 24,40.5C 27.5941,39.717 29.4274,41.0504 29.5,44.5 Z"/></g>
</svg>
