<?xml version="1.0" encoding="UTF-8"?>
<!DOCTYPE svg PUBLIC "-//W3C//DTD SVG 1.1//EN" "http://www.w3.org/Graphics/SVG/1.1/DTD/svg11.dtd">
<svg xmlns="http://www.w3.org/2000/svg" version="1.1" width="50px" height="50px" style="shape-rendering:geometricPrecision; text-rendering:geometricPrecision; image-rendering:optimizeQuality; fill-rule:evenodd; clip-rule:evenodd" xmlns:xlink="http://www.w3.org/1999/xlink">
<g><path style="opacity:1" fill="#c78575" d="M 25.5,7.5 C 22.5,7.5 19.5,7.5 16.5,7.5C 15.3509,7.79106 14.6842,8.62439 14.5,10C 15.6408,13.3286 15.6408,16.4953 14.5,19.5C 13.8333,17.1667 13.1667,14.8333 12.5,12.5C 12.5,11.5 12.5,10.5 12.5,9.5C 12.5569,8.39105 12.8902,7.39105 13.5,6.5C 17.0779,5.41131 20.7446,5.24465 24.5,6C 25.056,6.38258 25.3893,6.88258 25.5,7.5 Z"/></g>
<g><path style="opacity:0.984" fill="#d7876c" d="M 13.5,4.5 C 23.5056,4.33352 33.5056,4.50019 43.5,5C 44.2524,5.67076 44.5858,6.5041 44.5,7.5C 44.1667,8.16667 43.8333,8.83333 43.5,9.5C 37.56,8.68264 31.56,8.01597 25.5,7.5C 25.3893,6.88258 25.056,6.38258 24.5,6C 20.7446,5.24465 17.0779,5.41131 13.5,6.5C 13.5,5.83333 13.5,5.16667 13.5,4.5 Z"/></g>
<g><path style="opacity:1" fill="#cf8372" d="M 16.5,7.5 C 19.5,7.5 22.5,7.5 25.5,7.5C 31.56,8.01597 37.56,8.68264 43.5,9.5C 43.1788,11.0481 42.1788,11.7148 40.5,11.5C 38.5,11.5 36.5,11.5 34.5,11.5C 28.8333,11.5 23.1667,11.5 17.5,11.5C 17.1667,11.5 16.8333,11.5 16.5,11.5C 16.5,10.1667 16.5,8.83333 16.5,7.5 Z"/></g>
<g><path style="opacity:0.998" fill="#d26d48" d="M 13.5,4.5 C 13.5,5.16667 13.5,5.83333 13.5,6.5C 12.8902,7.39105 12.5569,8.39105 12.5,9.5C 9.14006,9.61587 5.80673,9.9492 2.5,10.5C 2.51056,8.98261 3.17723,7.81595 4.5,7C 7.43177,5.85513 10.4318,5.0218 13.5,4.5 Z"/></g>
<g><path style="opacity:0.975" fill="#c24e3c" d="M 12.5,9.5 C 12.5,10.5 12.5,11.5 12.5,12.5C 12.5,14.5 12.5,16.5 12.5,18.5C 12.1667,18.5 11.8333,18.5 11.5,18.5C 8.20652,18.2512 4.87318,18.2512 1.5,18.5C 1.1936,15.6146 1.52693,12.9479 2.5,10.5C 5.80673,9.9492 9.14006,9.61587 12.5,9.5 Z"/></g>
<g><path style="opacity:1" fill="#ca7a74" d="M 16.5,11.5 C 16.8333,11.5 17.1667,11.5 17.5,11.5C 17.5,12.5 17.5,13.5 17.5,14.5C 23.6218,15.198 29.2884,14.198 34.5,11.5C 36.5,11.5 38.5,11.5 40.5,11.5C 38.9019,13.6979 37.5686,16.0313 36.5,18.5C 35.2101,17.9423 34.3768,16.9423 34,15.5C 32.6439,16.3802 31.1439,16.7135 29.5,16.5C 25.3836,17.3916 21.0503,17.3916 16.5,16.5C 16.5,14.8333 16.5,13.1667 16.5,11.5 Z"/></g>
<g><path style="opacity:1" fill="#cc7f74" d="M 17.5,11.5 C 23.1667,11.5 28.8333,11.5 34.5,11.5C 29.2884,14.198 23.6218,15.198 17.5,14.5C 17.5,13.5 17.5,12.5 17.5,11.5 Z"/></g>
<g><path style="opacity:1" fill="#c96d65" d="M 44.5,7.5 C 45.3382,7.84171 45.6716,8.50838 45.5,9.5C 45.552,11.9029 45.2186,14.2362 44.5,16.5C 43.2597,17.6588 41.9264,18.6588 40.5,19.5C 39.0413,19.5674 37.7079,19.2341 36.5,18.5C 37.5686,16.0313 38.9019,13.6979 40.5,11.5C 42.1788,11.7148 43.1788,11.0481 43.5,9.5C 43.8333,8.83333 44.1667,8.16667 44.5,7.5 Z"/></g>
<g><path style="opacity:1" fill="#bc3439" d="M 11.5,18.5 C 11.5,19.5 11.5,20.5 11.5,21.5C 9.58533,21.2155 7.91866,21.5489 6.5,22.5C 5.17793,22.67 4.01127,22.3366 3,21.5C 2.72158,22.4158 2.22158,23.0825 1.5,23.5C 1.5,21.8333 1.5,20.1667 1.5,18.5C 4.87318,18.2512 8.20652,18.2512 11.5,18.5 Z"/></g>
<g><path style="opacity:1" fill="#c16d70" d="M 29.5,16.5 C 27.8058,17.5274 26.4725,18.8608 25.5,20.5C 25.0623,19.4937 24.3957,19.4937 23.5,20.5C 21.5742,21.2423 19.7409,22.2423 18,23.5C 17.7216,22.5842 17.2216,21.9175 16.5,21.5C 16.5,19.8333 16.5,18.1667 16.5,16.5C 21.0503,17.3916 25.3836,17.3916 29.5,16.5 Z"/></g>
<g><path style="opacity:1" fill="#a7454c" d="M 12.5,12.5 C 13.1667,14.8333 13.8333,17.1667 14.5,19.5C 14.5,22.1667 14.5,24.8333 14.5,27.5C 13.5318,29.6074 13.1984,31.9407 13.5,34.5C 14.7416,36.6112 14.7416,38.6112 13.5,40.5C 13.5,39.8333 13.1667,39.5 12.5,39.5C 12.5,32.5 12.5,25.5 12.5,18.5C 12.5,16.5 12.5,14.5 12.5,12.5 Z"/></g>
<g><path style="opacity:1" fill="#877e7e" d="M 38.5,25.5 C 38.8417,26.3382 39.5084,26.6716 40.5,26.5C 40.5,26.8333 40.5,27.1667 40.5,27.5C 37.615,28.3822 34.9483,29.7155 32.5,31.5C 28.9973,31.0061 26.6639,29.0061 25.5,25.5C 26.5,25.5 27.5,25.5 28.5,25.5C 29.7678,23.0945 29.7678,21.0945 28.5,19.5C 30.7725,20.3751 31.7725,22.0418 31.5,24.5C 33.1667,24.5 34.8333,24.5 36.5,24.5C 36.3505,23.448 36.5172,22.448 37,21.5C 37.21,23.0581 37.71,24.3915 38.5,25.5 Z"/></g>
<g><path style="opacity:1" fill="#c8bfbf" d="M 36.5,18.5 C 37.7079,19.2341 39.0413,19.5674 40.5,19.5C 38.9254,21.1137 38.2587,23.1137 38.5,25.5C 37.71,24.3915 37.21,23.0581 37,21.5C 36.5172,22.448 36.3505,23.448 36.5,24.5C 34.8333,24.5 33.1667,24.5 31.5,24.5C 31.7725,22.0418 30.7725,20.3751 28.5,19.5C 29.7678,21.0945 29.7678,23.0945 28.5,25.5C 27.5,25.5 26.5,25.5 25.5,25.5C 25.5,23.8333 25.5,22.1667 25.5,20.5C 26.4725,18.8608 27.8058,17.5274 29.5,16.5C 31.1439,16.7135 32.6439,16.3802 34,15.5C 34.3768,16.9423 35.2101,17.9423 36.5,18.5 Z"/></g>
<g><path style="opacity:1" fill="#be575f" d="M 44.5,16.5 C 44.5,18.5 44.5,20.5 44.5,22.5C 43.5,24.1667 42.1667,25.5 40.5,26.5C 39.5084,26.6716 38.8417,26.3382 38.5,25.5C 38.2587,23.1137 38.9254,21.1137 40.5,19.5C 41.9264,18.6588 43.2597,17.6588 44.5,16.5 Z"/></g>
<g><path style="opacity:0.979" fill="#b62035" d="M 6.5,22.5 C 7.18878,26.4571 7.18878,30.2904 6.5,34C 6.89811,37.6605 8.89811,39.4938 12.5,39.5C 13.1667,39.5 13.5,39.8333 13.5,40.5C 10.5,40.5 7.5,40.5 4.5,40.5C 2.9328,39.3192 2.09946,37.6526 2,35.5C 1.50115,31.5138 1.33449,27.5138 1.5,23.5C 2.22158,23.0825 2.72158,22.4158 3,21.5C 4.01127,22.3366 5.17793,22.67 6.5,22.5 Z"/></g>
<g><path style="opacity:0.427" fill="#bb424a" d="M 45.5,9.5 C 46.4924,17.3159 46.8257,25.3159 46.5,33.5C 45.8333,31.8333 45.1667,30.1667 44.5,28.5C 44.5,26.5 44.5,24.5 44.5,22.5C 44.5,20.5 44.5,18.5 44.5,16.5C 45.2186,14.2362 45.552,11.9029 45.5,9.5 Z"/></g>
<g><path style="opacity:1" fill="#bb5f69" d="M 23.5,20.5 C 23.48,24.5873 23.6467,28.5873 24,32.5C 21.8366,33.668 19.8366,34.3346 18,34.5C 17.8138,31.9644 17.3138,29.631 16.5,27.5C 16.5,25.5 16.5,23.5 16.5,21.5C 17.2216,21.9175 17.7216,22.5842 18,23.5C 19.7409,22.2423 21.5742,21.2423 23.5,20.5 Z"/></g>
<g><path style="opacity:1" fill="#b6273b" d="M 11.5,18.5 C 11.8333,18.5 12.1667,18.5 12.5,18.5C 12.5,25.5 12.5,32.5 12.5,39.5C 8.89811,39.4938 6.89811,37.6605 6.5,34C 7.18878,30.2904 7.18878,26.4571 6.5,22.5C 7.91866,21.5489 9.58533,21.2155 11.5,21.5C 11.5,20.5 11.5,19.5 11.5,18.5 Z"/></g>
<g><path style="opacity:1" fill="#b74d5a" d="M 40.5,27.5 C 41.0283,28.8474 41.195,30.1807 41,31.5C 38.3723,33.6827 35.2056,35.8493 31.5,38C 27.1794,38.499 22.8461,38.6657 18.5,38.5C 19.172,37.7326 20.0053,37.0659 21,36.5C 22.0495,37.5171 23.2161,37.6838 24.5,37C 27.0472,34.946 29.7139,33.1126 32.5,31.5C 34.9483,29.7155 37.615,28.3822 40.5,27.5 Z"/></g>
<g><path style="opacity:1" fill="#907678" d="M 14.5,27.5 C 15.4682,29.6074 15.8016,31.9407 15.5,34.5C 14.8333,34.5 14.1667,34.5 13.5,34.5C 13.1984,31.9407 13.5318,29.6074 14.5,27.5 Z"/></g>
<g><path style="opacity:1" fill="#983639" d="M 16.5,7.5 C 16.5,8.83333 16.5,10.1667 16.5,11.5C 16.5,13.1667 16.5,14.8333 16.5,16.5C 16.5,18.1667 16.5,19.8333 16.5,21.5C 16.5,23.5 16.5,25.5 16.5,27.5C 16.5,31.1667 16.5,34.8333 16.5,38.5C 15.5655,37.4324 15.2322,36.099 15.5,34.5C 15.8016,31.9407 15.4682,29.6074 14.5,27.5C 14.5,24.8333 14.5,22.1667 14.5,19.5C 15.6408,16.4953 15.6408,13.3286 14.5,10C 14.6842,8.62439 15.3509,7.79106 16.5,7.5 Z"/></g>
<g><path style="opacity:1" fill="#ab4c57" d="M 25.5,20.5 C 25.5,22.1667 25.5,23.8333 25.5,25.5C 26.6639,29.0061 28.9973,31.0061 32.5,31.5C 29.7139,33.1126 27.0472,34.946 24.5,37C 23.2161,37.6838 22.0495,37.5171 21,36.5C 20.0053,37.0659 19.172,37.7326 18.5,38.5C 17.8333,38.5 17.1667,38.5 16.5,38.5C 16.5,34.8333 16.5,31.1667 16.5,27.5C 17.3138,29.631 17.8138,31.9644 18,34.5C 19.8366,34.3346 21.8366,33.668 24,32.5C 23.6467,28.5873 23.48,24.5873 23.5,20.5C 24.3957,19.4937 25.0623,19.4937 25.5,20.5 Z"/></g>
<g><path style="opacity:1" fill="#b84655" d="M 44.5,22.5 C 44.5,24.5 44.5,26.5 44.5,28.5C 44.6646,31.5184 44.498,34.5184 44,37.5C 40.3973,38.1352 36.8973,38.8018 33.5,39.5C 27.642,39.8222 21.9753,39.4889 16.5,38.5C 17.1667,38.5 17.8333,38.5 18.5,38.5C 22.8461,38.6657 27.1794,38.499 31.5,38C 35.2056,35.8493 38.3723,33.6827 41,31.5C 41.195,30.1807 41.0283,28.8474 40.5,27.5C 40.5,27.1667 40.5,26.8333 40.5,26.5C 42.1667,25.5 43.5,24.1667 44.5,22.5 Z"/></g>
<g><path style="opacity:0.937" fill="#ae303f" d="M 44.5,28.5 C 45.1667,30.1667 45.8333,31.8333 46.5,33.5C 47.5878,38.2495 45.9211,41.2495 41.5,42.5C 39.6203,42.7709 38.287,42.1042 37.5,40.5C 38.8734,40.6567 40.2068,40.49 41.5,40C 38.854,39.5026 36.1873,39.3359 33.5,39.5C 36.8973,38.8018 40.3973,38.1352 44,37.5C 44.498,34.5184 44.6646,31.5184 44.5,28.5 Z"/></g>
<g><path style="opacity:1" fill="#98313c" d="M 37.5,40.5 C 38.287,42.1042 39.6203,42.7709 41.5,42.5C 40.0883,43.5325 38.4216,44.1992 36.5,44.5C 33.8853,43.7308 31.2186,43.3975 28.5,43.5C 26.3057,42.2335 23.9724,42.2335 21.5,43.5C 19.3392,42.9649 17.3392,42.1316 15.5,41C 22.8258,40.5003 30.1591,40.3337 37.5,40.5 Z"/></g>
<g><path style="opacity:0.973" fill="#88202a" d="M 13.5,34.5 C 14.1667,34.5 14.8333,34.5 15.5,34.5C 15.2322,36.099 15.5655,37.4324 16.5,38.5C 21.9753,39.4889 27.642,39.8222 33.5,39.5C 36.1873,39.3359 38.854,39.5026 41.5,40C 40.2068,40.49 38.8734,40.6567 37.5,40.5C 30.1591,40.3337 22.8258,40.5003 15.5,41C 17.3392,42.1316 19.3392,42.9649 21.5,43.5C 23.9724,42.2335 26.3057,42.2335 28.5,43.5C 22.1612,44.596 15.8278,44.596 9.5,43.5C 7.45647,42.9348 5.7898,41.9348 4.5,40.5C 7.5,40.5 10.5,40.5 13.5,40.5C 14.7416,38.6112 14.7416,36.6112 13.5,34.5 Z"/></g>
</svg>
