<svg width="22" height="1715" viewBox="0 0 22 1715" fill="none" xmlns="http://www.w3.org/2000/svg">
<path d="M8.00003 56H1.00003V63H8.00003V56Z" fill="white" fill-opacity="0.1"/>
<path d="M22 56H15V63H22V56Z" fill="white" fill-opacity="0.1"/>
<path d="M8.00003 42H1.00003V49H8.00003V42Z" fill="white" fill-opacity="0.1"/>
<path d="M15 49H8.00003V56H15V49Z" fill="white" fill-opacity="0.1"/>
<path d="M22 42H15V49H22V42Z" fill="white" fill-opacity="0.1"/>
<path d="M8.00003 28H1.00003V35H8.00003V28Z" fill="white" fill-opacity="0.1"/>
<path d="M15 35H8.00003V42H15V35Z" fill="white" fill-opacity="0.1"/>
<path d="M22 28H15V35H22V28Z" fill="white" fill-opacity="0.1"/>
<path d="M8.00003 14H1.00003V21H8.00003V14Z" fill="white" fill-opacity="0.1"/>
<path d="M15 21H8.00003V28H15V21Z" fill="white" fill-opacity="0.1"/>
<path d="M8.00003 98H1.00003V105H8.00003V98Z" fill="white" fill-opacity="0.1"/>
<path d="M22 98H15V105H22V98Z" fill="white" fill-opacity="0.1"/>
<path d="M8.00003 84H1.00003V91H8.00003V84Z" fill="white" fill-opacity="0.1"/>
<path d="M15 91H8.00003V98H15V91Z" fill="white" fill-opacity="0.1"/>
<path d="M22 84H15V91H22V84Z" fill="white" fill-opacity="0.1"/>
<path d="M8.00003 70H1.00003V77H8.00003V70Z" fill="white" fill-opacity="0.1"/>
<path d="M15 77H8.00003V84H15V77Z" fill="white" fill-opacity="0.1"/>
<path d="M22 70H15V77H22V70Z" fill="white" fill-opacity="0.1"/>
<path d="M15 63H8.00003V70H15V63Z" fill="white" fill-opacity="0.1"/>
<path d="M8.00003 140H1.00003V147H8.00003V140Z" fill="white" fill-opacity="0.1"/>
<path d="M22 140H15V147H22V140Z" fill="white" fill-opacity="0.1"/>
<path d="M8.00003 126H1.00003V133H8.00003V126Z" fill="white" fill-opacity="0.1"/>
<path d="M15 133H8.00003V140H15V133Z" fill="white" fill-opacity="0.1"/>
<path d="M22 126H15V133H22V126Z" fill="white" fill-opacity="0.1"/>
<path d="M8.00003 112H1.00003V119H8.00003V112Z" fill="white" fill-opacity="0.1"/>
<path d="M15 119H8.00003V126H15V119Z" fill="white" fill-opacity="0.1"/>
<path d="M22 112H15V119H22V112Z" fill="white" fill-opacity="0.1"/>
<path d="M15 105H8.00003V112H15V105Z" fill="white" fill-opacity="0.1"/>
<path d="M8.00003 182H1.00003V189H8.00003V182Z" fill="white" fill-opacity="0.1"/>
<path d="M22 182H15V189H22V182Z" fill="white" fill-opacity="0.1"/>
<path d="M8.00003 168H1.00003V175H8.00003V168Z" fill="white" fill-opacity="0.1"/>
<path d="M15 175H8.00003V182H15V175Z" fill="white" fill-opacity="0.1"/>
<path d="M22 168H15V175H22V168Z" fill="white" fill-opacity="0.1"/>
<path d="M8.00003 154H1.00003V161H8.00003V154Z" fill="white" fill-opacity="0.1"/>
<path d="M15 161H8.00003V168H15V161Z" fill="white" fill-opacity="0.1"/>
<path d="M22 154H15V161H22V154Z" fill="white" fill-opacity="0.1"/>
<path d="M15 147H8.00003V154H15V147Z" fill="white" fill-opacity="0.1"/>
<path d="M8.00003 224H1.00003V231H8.00003V224Z" fill="white" fill-opacity="0.1"/>
<path d="M22 224H15V231H22V224Z" fill="white" fill-opacity="0.1"/>
<path d="M8.00003 210H1.00003V217H8.00003V210Z" fill="white" fill-opacity="0.1"/>
<path d="M15 217H8.00003V224H15V217Z" fill="white" fill-opacity="0.1"/>
<path d="M22 210H15V217H22V210Z" fill="white" fill-opacity="0.1"/>
<path d="M8.00003 196H1.00003V203H8.00003V196Z" fill="white" fill-opacity="0.1"/>
<path d="M15 203H8.00003V210H15V203Z" fill="white" fill-opacity="0.1"/>
<path d="M22 196H15V203H22V196Z" fill="white" fill-opacity="0.1"/>
<path d="M15 189H8.00003V196H15V189Z" fill="white" fill-opacity="0.1"/>
<path d="M8.00003 266H1.00003V273H8.00003V266Z" fill="white" fill-opacity="0.1"/>
<path d="M22 266H15V273H22V266Z" fill="white" fill-opacity="0.1"/>
<path d="M8.00003 252H1.00003V259H8.00003V252Z" fill="white" fill-opacity="0.1"/>
<path d="M15 259H8.00003V266H15V259Z" fill="white" fill-opacity="0.1"/>
<path d="M22 252H15V259H22V252Z" fill="white" fill-opacity="0.1"/>
<path d="M8.00003 238H1.00003V245H8.00003V238Z" fill="white" fill-opacity="0.1"/>
<path d="M15 245H8.00003V252H15V245Z" fill="white" fill-opacity="0.1"/>
<path d="M22 238H15V245H22V238Z" fill="white" fill-opacity="0.1"/>
<path d="M15 231H8.00003V238H15V231Z" fill="white" fill-opacity="0.1"/>
<path d="M8.00003 308H1.00003V315H8.00003V308Z" fill="white" fill-opacity="0.1"/>
<path d="M22 308H15V315H22V308Z" fill="white" fill-opacity="0.1"/>
<path d="M8.00003 294H1.00003V301H8.00003V294Z" fill="white" fill-opacity="0.1"/>
<path d="M15 301H8.00003V308H15V301Z" fill="white" fill-opacity="0.1"/>
<path d="M22 294H15V301H22V294Z" fill="white" fill-opacity="0.1"/>
<path d="M8.00003 280H1.00003V287H8.00003V280Z" fill="white" fill-opacity="0.1"/>
<path d="M15 287H8.00003V294H15V287Z" fill="white" fill-opacity="0.1"/>
<path d="M22 280H15V287H22V280Z" fill="white" fill-opacity="0.1"/>
<path d="M15 273H8.00003V280H15V273Z" fill="white" fill-opacity="0.1"/>
<path d="M8.00003 350H1.00003V357H8.00003V350Z" fill="white" fill-opacity="0.1"/>
<path d="M22 350H15V357H22V350Z" fill="white" fill-opacity="0.1"/>
<path d="M8.00003 336H1.00003V343H8.00003V336Z" fill="white" fill-opacity="0.1"/>
<path d="M15 343H8.00003V350H15V343Z" fill="white" fill-opacity="0.1"/>
<path d="M22 336H15V343H22V336Z" fill="white" fill-opacity="0.1"/>
<path d="M8.00003 322H1.00003V329H8.00003V322Z" fill="white" fill-opacity="0.1"/>
<path d="M15 329H8.00003V336H15V329Z" fill="white" fill-opacity="0.1"/>
<path d="M22 322H15V329H22V322Z" fill="white" fill-opacity="0.1"/>
<path d="M15 315H8.00003V322H15V315Z" fill="white" fill-opacity="0.1"/>
<path d="M8.00003 392H1.00003V399H8.00003V392Z" fill="white" fill-opacity="0.1"/>
<path d="M22 392H15V399H22V392Z" fill="white" fill-opacity="0.1"/>
<path d="M8.00003 378H1.00003V385H8.00003V378Z" fill="white" fill-opacity="0.1"/>
<path d="M15 385H8.00003V392H15V385Z" fill="white" fill-opacity="0.1"/>
<path d="M22 378H15V385H22V378Z" fill="white" fill-opacity="0.1"/>
<path d="M8.00003 364H1.00003V371H8.00003V364Z" fill="white" fill-opacity="0.1"/>
<path d="M15 371H8.00003V378H15V371Z" fill="white" fill-opacity="0.1"/>
<path d="M22 364H15V371H22V364Z" fill="white" fill-opacity="0.1"/>
<path d="M15 357H8.00003V364H15V357Z" fill="white" fill-opacity="0.1"/>
<path d="M8.00003 434H1.00003V441H8.00003V434Z" fill="white" fill-opacity="0.1"/>
<path d="M22 434H15V441H22V434Z" fill="white" fill-opacity="0.1"/>
<path d="M8.00003 420H1.00003V427H8.00003V420Z" fill="white" fill-opacity="0.1"/>
<path d="M15 427H8.00003V434H15V427Z" fill="white" fill-opacity="0.1"/>
<path d="M22 420H15V427H22V420Z" fill="white" fill-opacity="0.1"/>
<path d="M8.00003 406H1.00003V413H8.00003V406Z" fill="white" fill-opacity="0.1"/>
<path d="M15 413H8.00003V420H15V413Z" fill="white" fill-opacity="0.1"/>
<path d="M22 406H15V413H22V406Z" fill="white" fill-opacity="0.1"/>
<path d="M15 399H8.00003V406H15V399Z" fill="white" fill-opacity="0.1"/>
<path d="M8.00003 476H1.00003V483H8.00003V476Z" fill="white" fill-opacity="0.1"/>
<path d="M22 476H15V483H22V476Z" fill="white" fill-opacity="0.1"/>
<path d="M8.00003 462H1.00003V469H8.00003V462Z" fill="white" fill-opacity="0.1"/>
<path d="M15 469H8.00003V476H15V469Z" fill="white" fill-opacity="0.1"/>
<path d="M22 462H15V469H22V462Z" fill="white" fill-opacity="0.1"/>
<path d="M8.00003 448H1.00003V455H8.00003V448Z" fill="white" fill-opacity="0.1"/>
<path d="M15 455H8.00003V462H15V455Z" fill="white" fill-opacity="0.1"/>
<path d="M22 448H15V455H22V448Z" fill="white" fill-opacity="0.1"/>
<path d="M15 441H8.00003V448H15V441Z" fill="white" fill-opacity="0.1"/>
<path d="M8.00003 518H1.00003V525H8.00003V518Z" fill="white" fill-opacity="0.1"/>
<path d="M22 518H15V525H22V518Z" fill="white" fill-opacity="0.1"/>
<path d="M8.00003 504H1.00003V511H8.00003V504Z" fill="white" fill-opacity="0.1"/>
<path d="M15 511H8.00003V518H15V511Z" fill="white" fill-opacity="0.1"/>
<path d="M22 504H15V511H22V504Z" fill="white" fill-opacity="0.1"/>
<path d="M8.00003 490H1.00003V497H8.00003V490Z" fill="white" fill-opacity="0.1"/>
<path d="M15 497H8.00003V504H15V497Z" fill="white" fill-opacity="0.1"/>
<path d="M22 490H15V497H22V490Z" fill="white" fill-opacity="0.1"/>
<path d="M15 483H8.00003V490H15V483Z" fill="white" fill-opacity="0.1"/>
<path d="M8.00003 560H1.00003V567H8.00003V560Z" fill="white" fill-opacity="0.1"/>
<path d="M22 560H15V567H22V560Z" fill="white" fill-opacity="0.1"/>
<path d="M8.00003 546H1.00003V553H8.00003V546Z" fill="white" fill-opacity="0.1"/>
<path d="M15 553H8.00003V560H15V553Z" fill="white" fill-opacity="0.1"/>
<path d="M22 546H15V553H22V546Z" fill="white" fill-opacity="0.1"/>
<path d="M8.00003 532H1.00003V539H8.00003V532Z" fill="white" fill-opacity="0.1"/>
<path d="M15 539H8.00003V546H15V539Z" fill="white" fill-opacity="0.1"/>
<path d="M22 532H15V539H22V532Z" fill="white" fill-opacity="0.1"/>
<path d="M15 525H8.00003V532H15V525Z" fill="white" fill-opacity="0.1"/>
<path d="M8.00003 602H1.00003V609H8.00003V602Z" fill="white" fill-opacity="0.1"/>
<path d="M22 602H15V609H22V602Z" fill="white" fill-opacity="0.1"/>
<path d="M8.00003 588H1.00003V595H8.00003V588Z" fill="white" fill-opacity="0.1"/>
<path d="M15 595H8.00003V602H15V595Z" fill="white" fill-opacity="0.1"/>
<path d="M22 588H15V595H22V588Z" fill="white" fill-opacity="0.1"/>
<path d="M8.00003 574H1.00003V581H8.00003V574Z" fill="white" fill-opacity="0.1"/>
<path d="M15 581H8.00003V588H15V581Z" fill="white" fill-opacity="0.1"/>
<path d="M22 574H15V581H22V574Z" fill="white" fill-opacity="0.1"/>
<path d="M15 567H8.00003V574H15V567Z" fill="white" fill-opacity="0.1"/>
<path d="M8.00003 644H1.00003V651H8.00003V644Z" fill="white" fill-opacity="0.1"/>
<path d="M22 644H15V651H22V644Z" fill="white" fill-opacity="0.1"/>
<path d="M8.00003 630H1.00003V637H8.00003V630Z" fill="white" fill-opacity="0.1"/>
<path d="M15 637H8.00003V644H15V637Z" fill="white" fill-opacity="0.1"/>
<path d="M22 630H15V637H22V630Z" fill="white" fill-opacity="0.1"/>
<path d="M8.00003 616H1.00003V623H8.00003V616Z" fill="white" fill-opacity="0.1"/>
<path d="M15 623H8.00003V630H15V623Z" fill="white" fill-opacity="0.1"/>
<path d="M22 616H15V623H22V616Z" fill="white" fill-opacity="0.1"/>
<path d="M15 609H8.00003V616H15V609Z" fill="white" fill-opacity="0.1"/>
<path d="M8.00003 686H1.00003V693H8.00003V686Z" fill="white" fill-opacity="0.1"/>
<path d="M22 686H15V693H22V686Z" fill="white" fill-opacity="0.1"/>
<path d="M8.00003 672H1.00003V679H8.00003V672Z" fill="white" fill-opacity="0.1"/>
<path d="M15 679H8.00003V686H15V679Z" fill="white" fill-opacity="0.1"/>
<path d="M22 672H15V679H22V672Z" fill="white" fill-opacity="0.1"/>
<path d="M8.00003 658H1.00003V665H8.00003V658Z" fill="white" fill-opacity="0.1"/>
<path d="M15 665H8.00003V672H15V665Z" fill="white" fill-opacity="0.1"/>
<path d="M22 658H15V665H22V658Z" fill="white" fill-opacity="0.1"/>
<path d="M15 651H8.00003V658H15V651Z" fill="white" fill-opacity="0.1"/>
<path d="M8.00003 728H1.00003V735H8.00003V728Z" fill="white" fill-opacity="0.1"/>
<path d="M22 728H15V735H22V728Z" fill="white" fill-opacity="0.1"/>
<path d="M8.00003 714H1.00003V721H8.00003V714Z" fill="white" fill-opacity="0.1"/>
<path d="M15 721H8.00003V728H15V721Z" fill="white" fill-opacity="0.1"/>
<path d="M22 714H15V721H22V714Z" fill="white" fill-opacity="0.1"/>
<path d="M8.00003 700H1.00003V707H8.00003V700Z" fill="white" fill-opacity="0.1"/>
<path d="M15 707H8.00003V714H15V707Z" fill="white" fill-opacity="0.1"/>
<path d="M22 700H15V707H22V700Z" fill="white" fill-opacity="0.1"/>
<path d="M15 693H8.00003V700H15V693Z" fill="white" fill-opacity="0.1"/>
<path d="M8.00003 770H1.00003V777H8.00003V770Z" fill="white" fill-opacity="0.1"/>
<path d="M22 770H15V777H22V770Z" fill="white" fill-opacity="0.1"/>
<path d="M8.00003 756H1.00003V763H8.00003V756Z" fill="white" fill-opacity="0.1"/>
<path d="M15 763H8.00003V770H15V763Z" fill="white" fill-opacity="0.1"/>
<path d="M22 756H15V763H22V756Z" fill="white" fill-opacity="0.1"/>
<path d="M8.00003 742H1.00003V749H8.00003V742Z" fill="white" fill-opacity="0.1"/>
<path d="M15 749H8.00003V756H15V749Z" fill="white" fill-opacity="0.1"/>
<path d="M22 742H15V749H22V742Z" fill="white" fill-opacity="0.1"/>
<path d="M15 735H8.00003V742H15V735Z" fill="white" fill-opacity="0.1"/>
<path d="M8.00003 812H1.00003V819H8.00003V812Z" fill="white" fill-opacity="0.1"/>
<path d="M22 812H15V819H22V812Z" fill="white" fill-opacity="0.1"/>
<path d="M8.00003 798H1.00003V805H8.00003V798Z" fill="white" fill-opacity="0.1"/>
<path d="M15 805H8.00003V812H15V805Z" fill="white" fill-opacity="0.1"/>
<path d="M22 798H15V805H22V798Z" fill="white" fill-opacity="0.1"/>
<path d="M8.00003 784H1.00003V791H8.00003V784Z" fill="white" fill-opacity="0.1"/>
<path d="M15 791H8.00003V798H15V791Z" fill="white" fill-opacity="0.1"/>
<path d="M22 784H15V791H22V784Z" fill="white" fill-opacity="0.1"/>
<path d="M15 777H8.00003V784H15V777Z" fill="white" fill-opacity="0.1"/>
<path d="M8.00003 840H1.00003V847H8.00003V840Z" fill="white" fill-opacity="0.1"/>
<path d="M22 840H15V847H22V840Z" fill="white" fill-opacity="0.1"/>
<path d="M8.00003 826H1.00003V833H8.00003V826Z" fill="white" fill-opacity="0.1"/>
<path d="M15 833H8.00003V840H15V833Z" fill="white" fill-opacity="0.1"/>
<path d="M22 826H15V833H22V826Z" fill="white" fill-opacity="0.1"/>
<path d="M15 819H8.00003V826H15V819Z" fill="white" fill-opacity="0.1"/>
<path d="M22 14H15V21H22V14Z" fill="white" fill-opacity="0.1"/>
<path d="M8.00003 0H1.00003V7H8.00003V0Z" fill="white" fill-opacity="0.1"/>
<path d="M15 7H8.00003V14H15V7Z" fill="white" fill-opacity="0.1"/>
<path d="M22 0H15V7H22V0Z" fill="white" fill-opacity="0.1"/>
<path d="M8.00003 854H1.00003V861H8.00003V854Z" fill="white" fill-opacity="0.1"/>
<path d="M22 854H15V861H22V854Z" fill="white" fill-opacity="0.1"/>
<path d="M15 847H8.00003V854H15V847Z" fill="white" fill-opacity="0.1"/>
<path d="M8.00003 868H1.00003V875H8.00003V868Z" fill="white" fill-opacity="0.1"/>
<path d="M8.00003 882H1.00003V889H8.00003V882Z" fill="white" fill-opacity="0.1"/>
<path d="M8.00003 896H1.00003V903H8.00003V896Z" fill="white" fill-opacity="0.1"/>
<path d="M8.00003 910H1.00003V917H8.00003V910Z" fill="white" fill-opacity="0.1"/>
<path d="M8.00003 924H1.00003V931H8.00003V924Z" fill="white" fill-opacity="0.1"/>
<path d="M8.00003 938H1.00003V945H8.00003V938Z" fill="white" fill-opacity="0.1"/>
<path d="M8.00003 952H1.00003V959H8.00003V952Z" fill="white" fill-opacity="0.1"/>
<path d="M8.00003 966H1.00003V973H8.00003V966Z" fill="white" fill-opacity="0.1"/>
<path d="M8.00003 980H1.00003V987H8.00003V980Z" fill="white" fill-opacity="0.1"/>
<path d="M8.00003 994H1.00003V1001H8.00003V994Z" fill="white" fill-opacity="0.1"/>
<path d="M8 1008H1V1015H8V1008Z" fill="white" fill-opacity="0.1"/>
<path d="M7.99997 1022H0.999969V1029H7.99997V1022Z" fill="white" fill-opacity="0.1"/>
<path d="M7.99994 1036H0.999939V1043H7.99994V1036Z" fill="white" fill-opacity="0.1"/>
<path d="M7.99991 1050H0.999908V1057H7.99991V1050Z" fill="white" fill-opacity="0.1"/>
<path d="M7.99988 1064H0.999878V1071H7.99988V1064Z" fill="white" fill-opacity="0.1"/>
<path d="M7.99985 1078H0.999847V1085H7.99985V1078Z" fill="white" fill-opacity="0.1"/>
<path d="M7.99982 1092H0.999817V1099H7.99982V1092Z" fill="white" fill-opacity="0.1"/>
<path d="M7.99979 1106H0.999786V1113H7.99979V1106Z" fill="white" fill-opacity="0.1"/>
<path d="M7.99976 1120H0.999756V1127H7.99976V1120Z" fill="white" fill-opacity="0.1"/>
<path d="M7.99973 1134H0.999725V1141H7.99973V1134Z" fill="white" fill-opacity="0.1"/>
<path d="M7.99969 1148H0.999695V1155H7.99969V1148Z" fill="white" fill-opacity="0.1"/>
<path d="M7.99966 1162H0.999664V1169H7.99966V1162Z" fill="white" fill-opacity="0.1"/>
<path d="M7.99963 1176H0.999634V1183H7.99963V1176Z" fill="white" fill-opacity="0.1"/>
<path d="M7.9996 1190H0.999603V1197H7.9996V1190Z" fill="white" fill-opacity="0.1"/>
<path d="M7.99957 1204H0.999573V1211H7.99957V1204Z" fill="white" fill-opacity="0.1"/>
<path d="M7.99954 1218H0.999542V1225H7.99954V1218Z" fill="white" fill-opacity="0.1"/>
<path d="M7.99951 1232H0.999512V1239H7.99951V1232Z" fill="white" fill-opacity="0.1"/>
<path d="M7.99948 1246H0.999481V1253H7.99948V1246Z" fill="white" fill-opacity="0.1"/>
<path d="M7.99945 1260H0.999451V1267H7.99945V1260Z" fill="white" fill-opacity="0.1"/>
<path d="M7.99942 1274H0.99942V1281H7.99942V1274Z" fill="white" fill-opacity="0.1"/>
<path d="M7.99939 1288H0.99939V1295H7.99939V1288Z" fill="white" fill-opacity="0.1"/>
<path d="M7.99936 1302H0.999359V1309H7.99936V1302Z" fill="white" fill-opacity="0.1"/>
<path d="M7.99933 1316H0.999329V1323H7.99933V1316Z" fill="white" fill-opacity="0.1"/>
<path d="M7.9993 1330H0.999298V1337H7.9993V1330Z" fill="white" fill-opacity="0.1"/>
<path d="M7.99927 1344H0.999268V1351H7.99927V1344Z" fill="white" fill-opacity="0.1"/>
<path d="M7.99924 1358H0.999237V1365H7.99924V1358Z" fill="white" fill-opacity="0.1"/>
<path d="M7.99921 1372H0.999207V1379H7.99921V1372Z" fill="white" fill-opacity="0.1"/>
<path d="M7.99918 1386H0.999176V1393H7.99918V1386Z" fill="white" fill-opacity="0.1"/>
<path d="M7.99915 1400H0.999146V1407H7.99915V1400Z" fill="white" fill-opacity="0.1"/>
<path d="M7.99911 1414H0.999115V1421H7.99911V1414Z" fill="white" fill-opacity="0.1"/>
<path d="M7.99908 1428H0.999084V1435H7.99908V1428Z" fill="white" fill-opacity="0.1"/>
<path d="M7.99905 1442H0.999054V1449H7.99905V1442Z" fill="white" fill-opacity="0.1"/>
<path d="M7.99902 1456H0.999023V1463H7.99902V1456Z" fill="white" fill-opacity="0.1"/>
<path d="M7.99899 1470H0.998993V1477H7.99899V1470Z" fill="white" fill-opacity="0.1"/>
<path d="M7.99896 1484H0.998962V1491H7.99896V1484Z" fill="white" fill-opacity="0.1"/>
<path d="M7.99893 1498H0.998932V1505H7.99893V1498Z" fill="white" fill-opacity="0.1"/>
<path d="M7.9989 1512H0.998901V1519H7.9989V1512Z" fill="white" fill-opacity="0.1"/>
<path d="M7.99887 1526H0.998871V1533H7.99887V1526Z" fill="white" fill-opacity="0.1"/>
<path d="M7.99884 1540H0.99884V1547H7.99884V1540Z" fill="white" fill-opacity="0.1"/>
<path d="M7.99881 1554H0.99881V1561H7.99881V1554Z" fill="white" fill-opacity="0.1"/>
<path d="M7.99878 1568H0.998779V1575H7.99878V1568Z" fill="white" fill-opacity="0.1"/>
<path d="M7.99875 1582H0.998749V1589H7.99875V1582Z" fill="white" fill-opacity="0.1"/>
<path d="M7.99872 1596H0.998718V1603H7.99872V1596Z" fill="white" fill-opacity="0.1"/>
<path d="M7.99869 1610H0.998688V1617H7.99869V1610Z" fill="white" fill-opacity="0.1"/>
<path d="M7.99866 1624H0.998657V1631H7.99866V1624Z" fill="white" fill-opacity="0.1"/>
<path d="M7.99863 1638H0.998627V1645H7.99863V1638Z" fill="white" fill-opacity="0.1"/>
<path d="M7.9986 1652H0.998596V1659H7.9986V1652Z" fill="white" fill-opacity="0.1"/>
<path d="M7.99857 1666H0.998566V1673H7.99857V1666Z" fill="white" fill-opacity="0.1"/>
<path d="M7.99854 1680H0.998535V1687H7.99854V1680Z" fill="white" fill-opacity="0.1"/>
<path d="M7.9985 1694H0.998505V1701H7.9985V1694Z" fill="white" fill-opacity="0.1"/>
<path d="M7.99847 1708H0.998474V1715H7.99847V1708Z" fill="white" fill-opacity="0.1"/>
<path d="M22 868H15V875H22V868Z" fill="white" fill-opacity="0.1"/>
<path d="M22 882H15V889H22V882Z" fill="white" fill-opacity="0.1"/>
<path d="M22 896H15V903H22V896Z" fill="white" fill-opacity="0.1"/>
<path d="M22 910H15V917H22V910Z" fill="white" fill-opacity="0.1"/>
<path d="M22 924H15V931H22V924Z" fill="white" fill-opacity="0.1"/>
<path d="M22 938H15V945H22V938Z" fill="white" fill-opacity="0.1"/>
<path d="M22 952H15V959H22V952Z" fill="white" fill-opacity="0.1"/>
<path d="M22 966H15V973H22V966Z" fill="white" fill-opacity="0.1"/>
<path d="M22 980H15V987H22V980Z" fill="white" fill-opacity="0.1"/>
<path d="M22 994H15V1001H22V994Z" fill="white" fill-opacity="0.1"/>
<path d="M22 1008H15V1015H22V1008Z" fill="white" fill-opacity="0.1"/>
<path d="M22 1022H15V1029H22V1022Z" fill="white" fill-opacity="0.1"/>
<path d="M21.9999 1036H14.9999V1043H21.9999V1036Z" fill="white" fill-opacity="0.1"/>
<path d="M21.9999 1050H14.9999V1057H21.9999V1050Z" fill="white" fill-opacity="0.1"/>
<path d="M21.9999 1064H14.9999V1071H21.9999V1064Z" fill="white" fill-opacity="0.1"/>
<path d="M21.9998 1078H14.9998V1085H21.9998V1078Z" fill="white" fill-opacity="0.1"/>
<path d="M21.9998 1092H14.9998V1099H21.9998V1092Z" fill="white" fill-opacity="0.1"/>
<path d="M21.9998 1106H14.9998V1113H21.9998V1106Z" fill="white" fill-opacity="0.1"/>
<path d="M21.9998 1120H14.9998V1127H21.9998V1120Z" fill="white" fill-opacity="0.1"/>
<path d="M21.9997 1134H14.9997V1141H21.9997V1134Z" fill="white" fill-opacity="0.1"/>
<path d="M21.9997 1148H14.9997V1155H21.9997V1148Z" fill="white" fill-opacity="0.1"/>
<path d="M21.9997 1162H14.9997V1169H21.9997V1162Z" fill="white" fill-opacity="0.1"/>
<path d="M21.9996 1176H14.9996V1183H21.9996V1176Z" fill="white" fill-opacity="0.1"/>
<path d="M21.9996 1190H14.9996V1197H21.9996V1190Z" fill="white" fill-opacity="0.1"/>
<path d="M21.9996 1204H14.9996V1211H21.9996V1204Z" fill="white" fill-opacity="0.1"/>
<path d="M21.9995 1218H14.9995V1225H21.9995V1218Z" fill="white" fill-opacity="0.1"/>
<path d="M21.9995 1232H14.9995V1239H21.9995V1232Z" fill="white" fill-opacity="0.1"/>
<path d="M21.9995 1246H14.9995V1253H21.9995V1246Z" fill="white" fill-opacity="0.1"/>
<path d="M21.9995 1260H14.9995V1267H21.9995V1260Z" fill="white" fill-opacity="0.1"/>
<path d="M21.9994 1274H14.9994V1281H21.9994V1274Z" fill="white" fill-opacity="0.1"/>
<path d="M21.9994 1288H14.9994V1295H21.9994V1288Z" fill="white" fill-opacity="0.1"/>
<path d="M21.9994 1302H14.9994V1309H21.9994V1302Z" fill="white" fill-opacity="0.1"/>
<path d="M21.9993 1316H14.9993V1323H21.9993V1316Z" fill="white" fill-opacity="0.1"/>
<path d="M21.9993 1330H14.9993V1337H21.9993V1330Z" fill="white" fill-opacity="0.1"/>
<path d="M21.9993 1344H14.9993V1351H21.9993V1344Z" fill="white" fill-opacity="0.1"/>
<path d="M21.9992 1358H14.9992V1365H21.9992V1358Z" fill="white" fill-opacity="0.1"/>
<path d="M21.9992 1372H14.9992V1379H21.9992V1372Z" fill="white" fill-opacity="0.1"/>
<path d="M21.9992 1386H14.9992V1393H21.9992V1386Z" fill="white" fill-opacity="0.1"/>
<path d="M21.9991 1400H14.9991V1407H21.9991V1400Z" fill="white" fill-opacity="0.1"/>
<path d="M21.9991 1414H14.9991V1421H21.9991V1414Z" fill="white" fill-opacity="0.1"/>
<path d="M21.9991 1428H14.9991V1435H21.9991V1428Z" fill="white" fill-opacity="0.1"/>
<path d="M21.9991 1442H14.9991V1449H21.9991V1442Z" fill="white" fill-opacity="0.1"/>
<path d="M21.999 1456H14.999V1463H21.999V1456Z" fill="white" fill-opacity="0.1"/>
<path d="M21.999 1470H14.999V1477H21.999V1470Z" fill="white" fill-opacity="0.1"/>
<path d="M21.999 1484H14.999V1491H21.999V1484Z" fill="white" fill-opacity="0.1"/>
<path d="M21.9989 1498H14.9989V1505H21.9989V1498Z" fill="white" fill-opacity="0.1"/>
<path d="M21.9989 1512H14.9989V1519H21.9989V1512Z" fill="white" fill-opacity="0.1"/>
<path d="M21.9989 1526H14.9989V1533H21.9989V1526Z" fill="white" fill-opacity="0.1"/>
<path d="M21.9988 1540H14.9988V1547H21.9988V1540Z" fill="white" fill-opacity="0.1"/>
<path d="M21.9988 1554H14.9988V1561H21.9988V1554Z" fill="white" fill-opacity="0.1"/>
<path d="M21.9988 1568H14.9988V1575H21.9988V1568Z" fill="white" fill-opacity="0.1"/>
<path d="M21.9987 1582H14.9987V1589H21.9987V1582Z" fill="white" fill-opacity="0.1"/>
<path d="M21.9987 1596H14.9987V1603H21.9987V1596Z" fill="white" fill-opacity="0.1"/>
<path d="M21.9987 1610H14.9987V1617H21.9987V1610Z" fill="white" fill-opacity="0.1"/>
<path d="M21.9987 1624H14.9987V1631H21.9987V1624Z" fill="white" fill-opacity="0.1"/>
<path d="M21.9986 1638H14.9986V1645H21.9986V1638Z" fill="white" fill-opacity="0.1"/>
<path d="M21.9986 1652H14.9986V1659H21.9986V1652Z" fill="white" fill-opacity="0.1"/>
<path d="M21.9986 1666H14.9986V1673H21.9986V1666Z" fill="white" fill-opacity="0.1"/>
<path d="M21.9985 1680H14.9985V1687H21.9985V1680Z" fill="white" fill-opacity="0.1"/>
<path d="M21.9985 1694H14.9985V1701H21.9985V1694Z" fill="white" fill-opacity="0.1"/>
<path d="M21.9985 1708H14.9985V1715H21.9985V1708Z" fill="white" fill-opacity="0.1"/>
<path d="M15 861H8.00003V868H15V861Z" fill="white" fill-opacity="0.1"/>
<path d="M15 875H8.00003V882H15V875Z" fill="white" fill-opacity="0.1"/>
<path d="M15 889H8.00003V896H15V889Z" fill="white" fill-opacity="0.1"/>
<path d="M15 903H8.00003V910H15V903Z" fill="white" fill-opacity="0.1"/>
<path d="M15 917H8.00003V924H15V917Z" fill="white" fill-opacity="0.1"/>
<path d="M15 931H8.00003V938H15V931Z" fill="white" fill-opacity="0.1"/>
<path d="M15 945H8.00003V952H15V945Z" fill="white" fill-opacity="0.1"/>
<path d="M15 959H8.00003V966H15V959Z" fill="white" fill-opacity="0.1"/>
<path d="M15 973H8.00003V980H15V973Z" fill="white" fill-opacity="0.1"/>
<path d="M15 987H8.00003V994H15V987Z" fill="white" fill-opacity="0.1"/>
<path d="M15 1001H8V1008H15V1001Z" fill="white" fill-opacity="0.1"/>
<path d="M15 1015H7.99997V1022H15V1015Z" fill="white" fill-opacity="0.1"/>
<path d="M14.9999 1029H7.99994V1036H14.9999V1029Z" fill="white" fill-opacity="0.1"/>
<path d="M14.9999 1043H7.99991V1050H14.9999V1043Z" fill="white" fill-opacity="0.1"/>
<path d="M14.9999 1057H7.99988V1064H14.9999V1057Z" fill="white" fill-opacity="0.1"/>
<path d="M14.9998 1071H7.99985V1078H14.9998V1071Z" fill="white" fill-opacity="0.1"/>
<path d="M14.9998 1085H7.99982V1092H14.9998V1085Z" fill="white" fill-opacity="0.1"/>
<path d="M14.9998 1099H7.99979V1106H14.9998V1099Z" fill="white" fill-opacity="0.1"/>
<path d="M14.9998 1113H7.99976V1120H14.9998V1113Z" fill="white" fill-opacity="0.1"/>
<path d="M14.9997 1127H7.99973V1134H14.9997V1127Z" fill="white" fill-opacity="0.1"/>
<path d="M14.9997 1141H7.99969V1148H14.9997V1141Z" fill="white" fill-opacity="0.1"/>
<path d="M14.9997 1155H7.99966V1162H14.9997V1155Z" fill="white" fill-opacity="0.1"/>
<path d="M14.9996 1169H7.99963V1176H14.9996V1169Z" fill="white" fill-opacity="0.1"/>
<path d="M14.9996 1183H7.9996V1190H14.9996V1183Z" fill="white" fill-opacity="0.1"/>
<path d="M14.9996 1197H7.99957V1204H14.9996V1197Z" fill="white" fill-opacity="0.1"/>
<path d="M14.9995 1211H7.99954V1218H14.9995V1211Z" fill="white" fill-opacity="0.1"/>
<path d="M14.9995 1225H7.99951V1232H14.9995V1225Z" fill="white" fill-opacity="0.1"/>
<path d="M14.9995 1239H7.99948V1246H14.9995V1239Z" fill="white" fill-opacity="0.1"/>
<path d="M14.9995 1253H7.99945V1260H14.9995V1253Z" fill="white" fill-opacity="0.1"/>
<path d="M14.9994 1267H7.99942V1274H14.9994V1267Z" fill="white" fill-opacity="0.1"/>
<path d="M14.9994 1281H7.99939V1288H14.9994V1281Z" fill="white" fill-opacity="0.1"/>
<path d="M14.9994 1295H7.99936V1302H14.9994V1295Z" fill="white" fill-opacity="0.1"/>
<path d="M14.9993 1309H7.99933V1316H14.9993V1309Z" fill="white" fill-opacity="0.1"/>
<path d="M14.9993 1323H7.9993V1330H14.9993V1323Z" fill="white" fill-opacity="0.1"/>
<path d="M14.9993 1337H7.99927V1344H14.9993V1337Z" fill="white" fill-opacity="0.1"/>
<path d="M14.9992 1351H7.99924V1358H14.9992V1351Z" fill="white" fill-opacity="0.1"/>
<path d="M14.9992 1365H7.99921V1372H14.9992V1365Z" fill="white" fill-opacity="0.1"/>
<path d="M14.9992 1379H7.99918V1386H14.9992V1379Z" fill="white" fill-opacity="0.1"/>
<path d="M14.9991 1393H7.99915V1400H14.9991V1393Z" fill="white" fill-opacity="0.1"/>
<path d="M14.9991 1407H7.99911V1414H14.9991V1407Z" fill="white" fill-opacity="0.1"/>
<path d="M14.9991 1421H7.99908V1428H14.9991V1421Z" fill="white" fill-opacity="0.1"/>
<path d="M14.9991 1435H7.99905V1442H14.9991V1435Z" fill="white" fill-opacity="0.1"/>
<path d="M14.999 1449H7.99902V1456H14.999V1449Z" fill="white" fill-opacity="0.1"/>
<path d="M14.999 1463H7.99899V1470H14.999V1463Z" fill="white" fill-opacity="0.1"/>
<path d="M14.999 1477H7.99896V1484H14.999V1477Z" fill="white" fill-opacity="0.1"/>
<path d="M14.9989 1491H7.99893V1498H14.9989V1491Z" fill="white" fill-opacity="0.1"/>
<path d="M14.9989 1505H7.9989V1512H14.9989V1505Z" fill="white" fill-opacity="0.1"/>
<path d="M14.9989 1519H7.99887V1526H14.9989V1519Z" fill="white" fill-opacity="0.1"/>
<path d="M14.9988 1533H7.99884V1540H14.9988V1533Z" fill="white" fill-opacity="0.1"/>
<path d="M14.9988 1547H7.99881V1554H14.9988V1547Z" fill="white" fill-opacity="0.1"/>
<path d="M14.9988 1561H7.99878V1568H14.9988V1561Z" fill="white" fill-opacity="0.1"/>
<path d="M14.9987 1575H7.99875V1582H14.9987V1575Z" fill="white" fill-opacity="0.1"/>
<path d="M14.9987 1589H7.99872V1596H14.9987V1589Z" fill="white" fill-opacity="0.1"/>
<path d="M14.9987 1603H7.99869V1610H14.9987V1603Z" fill="white" fill-opacity="0.1"/>
<path d="M14.9987 1617H7.99866V1624H14.9987V1617Z" fill="white" fill-opacity="0.1"/>
<path d="M14.9986 1631H7.99863V1638H14.9986V1631Z" fill="white" fill-opacity="0.1"/>
<path d="M14.9986 1645H7.9986V1652H14.9986V1645Z" fill="white" fill-opacity="0.1"/>
<path d="M14.9986 1659H7.99857V1666H14.9986V1659Z" fill="white" fill-opacity="0.1"/>
<path d="M14.9985 1673H7.99854V1680H14.9985V1673Z" fill="white" fill-opacity="0.1"/>
<path d="M14.9985 1687H7.9985V1694H14.9985V1687Z" fill="white" fill-opacity="0.1"/>
<path d="M14.9985 1701H7.99847V1708H14.9985V1701Z" fill="white" fill-opacity="0.1"/>
</svg>
